# File created by Blade
# Date/Time:  Wed Jan 21 19:08:52 2015
# Frame Rate: 120.000 fps
#------------------------------------------------------
:FULLY-SPECIFIED
:DEGREES
3285
root -4.113472 32.744681 -4.365355 44.418437 4.103773 -1.856952
RightUpLeg -69.725521 -7.877211 10.297553
RightLeg 39.764012 -0.000000 -0.000000
RightFoot 5.391523 7.007483 22.641126
RightToeBase 18.523438 -0.000000 -0.000000
LeftUpLeg -43.789726 1.946715 -5.271288
LeftLeg 8.483467 -0.000000 -0.000000
LeftFoot -12.757914 5.683403 -0.563588
LeftToeBase 10.306851 -0.000000 -0.000000
Spine -43.794567 -1.932420 -0.478288
RightShoulder -15.822916 14.924858 -36.055000
RightArm -3.296320 -11.661615 63.653279
RightForeArm 23.540179 -0.000000 -2.455477
RightHand 12.959770 -0.000000 6.522888
RightHandThumb1 -24.326973 -0.000000 -32.862282
LeftShoulder -10.147501 6.752772 32.233193
LeftArm 15.691082 -3.220178 -69.193057
LeftForeArm 6.086062 0.000000 -3.632624
LeftHand -18.923799 -0.000000 2.683683
LeftHandThumb1 -26.253704 0.000000 33.147579
Head 10.128348 -3.752688 13.147721
3286
root -4.051901 32.744085 -4.436035 44.258062 3.995946 -2.003035
RightUpLeg -71.274819 -8.042721 10.477852
RightLeg 41.814183 -0.000000 -0.000000
RightFoot 7.375040 6.748277 22.330057
RightToeBase 20.203156 -0.000000 -0.000000
LeftUpLeg -43.803798 1.990089 -5.275836
LeftLeg 8.605518 -0.000000 -0.000000
LeftFoot -12.819370 5.756541 -0.420600
LeftToeBase 10.410771 -0.000000 -0.000000
Spine -43.600448 -1.876813 -0.346270
RightShoulder -15.808014 14.953714 -36.039977
RightArm -3.232886 -11.589877 63.452740
RightForeArm 23.425962 0.000000 -2.567581
RightHand 12.956041 -0.000000 6.493541
RightHandThumb1 -24.326973 -0.000000 -32.862282
LeftShoulder -10.018620 6.663226 32.235864
LeftArm 16.009696 -2.893396 -69.009951
LeftForeArm 6.108277 -0.000000 -3.580897
LeftHand -19.077556 -0.000000 2.729600
LeftHandThumb1 -26.253704 0.000000 33.147579
Head 10.235234 -3.641758 13.132731
3287
root -3.991031 32.745438 -4.503183 44.098447 3.940279 -2.153923
RightUpLeg -72.783704 -8.225485 10.666044
RightLeg 43.698928 -0.000000 -0.000000
RightFoot 9.323479 6.537263 21.660754
RightToeBase 22.514739 -0.000000 -0.000000
LeftUpLeg -43.814664 2.009760 -5.235359
LeftLeg 8.695519 -0.000000 -0.000000
LeftFoot -12.813886 5.639918 -0.327179
LeftToeBase 10.535266 -0.000000 -0.000000
Spine -43.424358 -1.866124 -0.157989
RightShoulder -15.793764 15.041735 -36.006801
RightArm -3.199128 -11.469956 63.209370
RightForeArm 23.264051 -0.000000 -2.679172
RightHand 12.841350 -0.000000 6.556114
RightHandThumb1 -24.326973 -0.000000 -32.862282
LeftShoulder -9.901554 6.693004 32.201161
LeftArm 16.447968 -2.436186 -68.766847
LeftForeArm 6.045445 0.000000 -3.519149
LeftHand -19.103321 -0.000000 3.009030
LeftHandThumb1 -26.253704 0.000000 33.147579
Head 10.411090 -3.531171 13.114294
3288
root -3.935864 32.747861 -4.567132 43.927480 3.897959 -2.310899
RightUpLeg -74.251211 -8.371496 10.847632
RightLeg 45.465221 -0.000000 -0.000000
RightFoot 11.055167 6.289228 20.808390
RightToeBase 26.321443 -0.000000 -0.000000
LeftUpLeg -43.809788 2.043845 -5.170195
LeftLeg 8.796818 -0.000000 -0.000000
LeftFoot -12.813190 5.546438 -0.311643
LeftToeBase 10.442882 -0.000000 -0.000000
Spine -43.246658 -1.859854 0.021662
RightShoulder -15.786202 15.113558 -35.957219
RightArm -3.165242 -11.418528 62.991262
RightForeArm 23.211701 -0.000000 -2.801472
RightHand 12.768832 -0.000000 6.735184
RightHandThumb1 -24.326973 -0.000000 -32.862282
LeftShoulder -9.797797 6.606113 32.190336
LeftArm 16.805372 -1.948116 -68.468899
LeftForeArm 5.874322 -0.000000 -3.408413
LeftHand -19.249098 -0.000000 2.998850
LeftHandThumb1 -26.253704 0.000000 33.147579
Head 10.592190 -3.393820 13.120410
3289
root -3.880170 32.751488 -4.635497 43.781265 3.854730 -2.436994
RightUpLeg -75.707108 -8.465546 10.936961
RightLeg 47.098142 -0.000000 -0.000000
RightFoot 12.415681 5.838701 19.714452
RightToeBase 28.691733 -0.000000 -0.000000
LeftUpLeg -43.840090 2.114010 -5.180235
LeftLeg 8.901126 -0.000000 -0.000000
LeftFoot -12.782827 5.436249 -0.315299
LeftToeBase 10.444389 -0.000000 -0.000000
Spine -43.075329 -1.851797 0.167653
RightShoulder -15.832233 15.167131 -35.910746
RightArm -3.097393 -11.434681 62.766043
RightForeArm 23.186086 0.000000 -2.939915
RightHand 12.675368 -0.000000 7.107831
RightHandThumb1 -24.326973 -0.000000 -32.862282
LeftShoulder -9.714821 6.480994 32.184849
LeftArm 17.179781 -1.486525 -68.184891
LeftForeArm 5.749235 -0.000000 -3.282591
LeftHand -19.277625 -0.000000 3.104044
LeftHandThumb1 -26.253704 0.000000 33.147579
Head 10.766730 -3.325077 13.104103
